<mxfile host="app.diagrams.net" agent="Mozilla/5.0 (Windows NT 10.0; Win64; x64) AppleWebKit/537.36 (KHTML, like Gecko) Chrome/141.0.0.0 Safari/537.36" version="28.2.8">
  <diagram name="Trang-1" id="DyeFEJzLR0LAhU3ais9p">
    <mxGraphModel dx="1353" dy="620" grid="1" gridSize="10" guides="1" tooltips="1" connect="1" arrows="1" fold="1" page="1" pageScale="1" pageWidth="827" pageHeight="1169" math="0" shadow="0">
      <root>
        <mxCell id="0" />
        <mxCell id="1" parent="0" />
        <mxCell id="HeWmij_1mZDLhINLAWdS-2" value="Consumer Account" style="points=[[0,0],[0.25,0],[0.5,0],[0.75,0],[1,0],[1,0.25],[1,0.5],[1,0.75],[1,1],[0.75,1],[0.5,1],[0.25,1],[0,1],[0,0.75],[0,0.5],[0,0.25]];outlineConnect=0;gradientColor=none;html=1;whiteSpace=wrap;fontSize=12;fontStyle=0;container=1;pointerEvents=0;collapsible=0;recursiveResize=0;shape=mxgraph.aws4.group;grIcon=mxgraph.aws4.group_aws_cloud_alt;strokeColor=#232F3E;fillColor=none;verticalAlign=top;align=left;spacingLeft=30;fontColor=#232F3E;dashed=0;" vertex="1" parent="1">
          <mxGeometry x="120" y="140" width="430" height="120" as="geometry" />
        </mxCell>
        <mxCell id="HeWmij_1mZDLhINLAWdS-3" value="" style="sketch=0;outlineConnect=0;fontColor=#232F3E;gradientColor=none;fillColor=#7AA116;strokeColor=none;dashed=0;verticalLabelPosition=bottom;verticalAlign=top;align=center;html=1;fontSize=12;fontStyle=0;aspect=fixed;pointerEvents=1;shape=mxgraph.aws4.object;" vertex="1" parent="HeWmij_1mZDLhINLAWdS-2">
          <mxGeometry x="20" y="30" width="60" height="60" as="geometry" />
        </mxCell>
        <mxCell id="HeWmij_1mZDLhINLAWdS-5" value="" style="sketch=0;outlineConnect=0;fontColor=#232F3E;gradientColor=none;fillColor=#7AA116;strokeColor=none;dashed=0;verticalLabelPosition=bottom;verticalAlign=top;align=center;html=1;fontSize=12;fontStyle=0;aspect=fixed;pointerEvents=1;shape=mxgraph.aws4.bucket;" vertex="1" parent="HeWmij_1mZDLhINLAWdS-2">
          <mxGeometry x="160" y="30" width="57.69" height="60" as="geometry" />
        </mxCell>
        <mxCell id="HeWmij_1mZDLhINLAWdS-6" value="" style="sketch=0;outlineConnect=0;fontColor=#232F3E;gradientColor=none;fillColor=#E7157B;strokeColor=none;dashed=0;verticalLabelPosition=bottom;verticalAlign=top;align=center;html=1;fontSize=12;fontStyle=0;aspect=fixed;pointerEvents=1;shape=mxgraph.aws4.event;" vertex="1" parent="HeWmij_1mZDLhINLAWdS-2">
          <mxGeometry x="330" y="25.5" width="69" height="69" as="geometry" />
        </mxCell>
        <mxCell id="HeWmij_1mZDLhINLAWdS-15" value="Object" style="text;html=1;whiteSpace=wrap;strokeColor=none;fillColor=none;align=center;verticalAlign=middle;rounded=0;" vertex="1" parent="HeWmij_1mZDLhINLAWdS-2">
          <mxGeometry x="20" y="90" width="60" height="30" as="geometry" />
        </mxCell>
        <mxCell id="HeWmij_1mZDLhINLAWdS-16" value="Bucket" style="text;html=1;whiteSpace=wrap;strokeColor=none;fillColor=none;align=center;verticalAlign=middle;rounded=0;" vertex="1" parent="HeWmij_1mZDLhINLAWdS-2">
          <mxGeometry x="157.69" y="90" width="60" height="30" as="geometry" />
        </mxCell>
        <mxCell id="HeWmij_1mZDLhINLAWdS-17" value="s3:ObjectCreated:*" style="text;html=1;whiteSpace=wrap;strokeColor=none;fillColor=none;align=center;verticalAlign=middle;rounded=0;" vertex="1" parent="HeWmij_1mZDLhINLAWdS-2">
          <mxGeometry x="336.75" y="94.5" width="55.5" height="20" as="geometry" />
        </mxCell>
        <mxCell id="HeWmij_1mZDLhINLAWdS-20" value="" style="endArrow=classic;html=1;rounded=0;" edge="1" parent="HeWmij_1mZDLhINLAWdS-2" source="HeWmij_1mZDLhINLAWdS-3" target="HeWmij_1mZDLhINLAWdS-5">
          <mxGeometry width="50" height="50" relative="1" as="geometry">
            <mxPoint x="40" y="210" as="sourcePoint" />
            <mxPoint x="90" y="160" as="targetPoint" />
          </mxGeometry>
        </mxCell>
        <mxCell id="HeWmij_1mZDLhINLAWdS-22" value="" style="endArrow=classic;html=1;rounded=0;" edge="1" parent="HeWmij_1mZDLhINLAWdS-2" source="HeWmij_1mZDLhINLAWdS-5" target="HeWmij_1mZDLhINLAWdS-6">
          <mxGeometry width="50" height="50" relative="1" as="geometry">
            <mxPoint x="240" y="80" as="sourcePoint" />
            <mxPoint x="290" y="30" as="targetPoint" />
          </mxGeometry>
        </mxCell>
        <mxCell id="HeWmij_1mZDLhINLAWdS-23" value="Consumer Account" style="points=[[0,0],[0.25,0],[0.5,0],[0.75,0],[1,0],[1,0.25],[1,0.5],[1,0.75],[1,1],[0.75,1],[0.5,1],[0.25,1],[0,1],[0,0.75],[0,0.5],[0,0.25]];outlineConnect=0;gradientColor=none;html=1;whiteSpace=wrap;fontSize=12;fontStyle=0;container=1;pointerEvents=0;collapsible=0;recursiveResize=0;shape=mxgraph.aws4.group;grIcon=mxgraph.aws4.group_aws_cloud_alt;strokeColor=#232F3E;fillColor=none;verticalAlign=top;align=left;spacingLeft=30;fontColor=#232F3E;dashed=0;" vertex="1" parent="1">
          <mxGeometry x="120" y="280" width="430" height="120" as="geometry" />
        </mxCell>
        <mxCell id="HeWmij_1mZDLhINLAWdS-24" value="" style="sketch=0;outlineConnect=0;fontColor=#232F3E;gradientColor=none;fillColor=#7AA116;strokeColor=none;dashed=0;verticalLabelPosition=bottom;verticalAlign=top;align=center;html=1;fontSize=12;fontStyle=0;aspect=fixed;pointerEvents=1;shape=mxgraph.aws4.object;" vertex="1" parent="HeWmij_1mZDLhINLAWdS-23">
          <mxGeometry x="20" y="30" width="60" height="60" as="geometry" />
        </mxCell>
        <mxCell id="HeWmij_1mZDLhINLAWdS-25" value="" style="sketch=0;outlineConnect=0;fontColor=#232F3E;gradientColor=none;fillColor=#7AA116;strokeColor=none;dashed=0;verticalLabelPosition=bottom;verticalAlign=top;align=center;html=1;fontSize=12;fontStyle=0;aspect=fixed;pointerEvents=1;shape=mxgraph.aws4.bucket;" vertex="1" parent="HeWmij_1mZDLhINLAWdS-23">
          <mxGeometry x="160" y="30" width="57.69" height="60" as="geometry" />
        </mxCell>
        <mxCell id="HeWmij_1mZDLhINLAWdS-26" value="" style="sketch=0;outlineConnect=0;fontColor=#232F3E;gradientColor=none;fillColor=#E7157B;strokeColor=none;dashed=0;verticalLabelPosition=bottom;verticalAlign=top;align=center;html=1;fontSize=12;fontStyle=0;aspect=fixed;pointerEvents=1;shape=mxgraph.aws4.event;" vertex="1" parent="HeWmij_1mZDLhINLAWdS-23">
          <mxGeometry x="330" y="25.5" width="69" height="69" as="geometry" />
        </mxCell>
        <mxCell id="HeWmij_1mZDLhINLAWdS-27" value="Object" style="text;html=1;whiteSpace=wrap;strokeColor=none;fillColor=none;align=center;verticalAlign=middle;rounded=0;" vertex="1" parent="HeWmij_1mZDLhINLAWdS-23">
          <mxGeometry x="20" y="90" width="60" height="30" as="geometry" />
        </mxCell>
        <mxCell id="HeWmij_1mZDLhINLAWdS-28" value="Bucket" style="text;html=1;whiteSpace=wrap;strokeColor=none;fillColor=none;align=center;verticalAlign=middle;rounded=0;" vertex="1" parent="HeWmij_1mZDLhINLAWdS-23">
          <mxGeometry x="157.69" y="90" width="60" height="30" as="geometry" />
        </mxCell>
        <mxCell id="HeWmij_1mZDLhINLAWdS-29" value="s3:ObjectCreated:*" style="text;html=1;whiteSpace=wrap;strokeColor=none;fillColor=none;align=center;verticalAlign=middle;rounded=0;" vertex="1" parent="HeWmij_1mZDLhINLAWdS-23">
          <mxGeometry x="336.75" y="94.5" width="55.5" height="20" as="geometry" />
        </mxCell>
        <mxCell id="HeWmij_1mZDLhINLAWdS-30" value="" style="endArrow=classic;html=1;rounded=0;" edge="1" parent="HeWmij_1mZDLhINLAWdS-23" source="HeWmij_1mZDLhINLAWdS-24" target="HeWmij_1mZDLhINLAWdS-25">
          <mxGeometry width="50" height="50" relative="1" as="geometry">
            <mxPoint x="40" y="210" as="sourcePoint" />
            <mxPoint x="90" y="160" as="targetPoint" />
          </mxGeometry>
        </mxCell>
        <mxCell id="HeWmij_1mZDLhINLAWdS-31" value="" style="endArrow=classic;html=1;rounded=0;" edge="1" parent="HeWmij_1mZDLhINLAWdS-23" source="HeWmij_1mZDLhINLAWdS-25" target="HeWmij_1mZDLhINLAWdS-26">
          <mxGeometry width="50" height="50" relative="1" as="geometry">
            <mxPoint x="240" y="80" as="sourcePoint" />
            <mxPoint x="290" y="30" as="targetPoint" />
          </mxGeometry>
        </mxCell>
        <mxCell id="HeWmij_1mZDLhINLAWdS-32" value="Consumer Account" style="points=[[0,0],[0.25,0],[0.5,0],[0.75,0],[1,0],[1,0.25],[1,0.5],[1,0.75],[1,1],[0.75,1],[0.5,1],[0.25,1],[0,1],[0,0.75],[0,0.5],[0,0.25]];outlineConnect=0;gradientColor=none;html=1;whiteSpace=wrap;fontSize=12;fontStyle=0;container=1;pointerEvents=0;collapsible=0;recursiveResize=0;shape=mxgraph.aws4.group;grIcon=mxgraph.aws4.group_aws_cloud_alt;strokeColor=#232F3E;fillColor=none;verticalAlign=top;align=left;spacingLeft=30;fontColor=#232F3E;dashed=0;" vertex="1" parent="1">
          <mxGeometry x="120" y="420" width="430" height="120" as="geometry" />
        </mxCell>
        <mxCell id="HeWmij_1mZDLhINLAWdS-33" value="" style="sketch=0;outlineConnect=0;fontColor=#232F3E;gradientColor=none;fillColor=#7AA116;strokeColor=none;dashed=0;verticalLabelPosition=bottom;verticalAlign=top;align=center;html=1;fontSize=12;fontStyle=0;aspect=fixed;pointerEvents=1;shape=mxgraph.aws4.object;" vertex="1" parent="HeWmij_1mZDLhINLAWdS-32">
          <mxGeometry x="20" y="30" width="60" height="60" as="geometry" />
        </mxCell>
        <mxCell id="HeWmij_1mZDLhINLAWdS-34" value="" style="sketch=0;outlineConnect=0;fontColor=#232F3E;gradientColor=none;fillColor=#7AA116;strokeColor=none;dashed=0;verticalLabelPosition=bottom;verticalAlign=top;align=center;html=1;fontSize=12;fontStyle=0;aspect=fixed;pointerEvents=1;shape=mxgraph.aws4.bucket;" vertex="1" parent="HeWmij_1mZDLhINLAWdS-32">
          <mxGeometry x="160" y="30" width="57.69" height="60" as="geometry" />
        </mxCell>
        <mxCell id="HeWmij_1mZDLhINLAWdS-35" value="" style="sketch=0;outlineConnect=0;fontColor=#232F3E;gradientColor=none;fillColor=#E7157B;strokeColor=none;dashed=0;verticalLabelPosition=bottom;verticalAlign=top;align=center;html=1;fontSize=12;fontStyle=0;aspect=fixed;pointerEvents=1;shape=mxgraph.aws4.event;" vertex="1" parent="HeWmij_1mZDLhINLAWdS-32">
          <mxGeometry x="330" y="25.5" width="69" height="69" as="geometry" />
        </mxCell>
        <mxCell id="HeWmij_1mZDLhINLAWdS-36" value="Object" style="text;html=1;whiteSpace=wrap;strokeColor=none;fillColor=none;align=center;verticalAlign=middle;rounded=0;" vertex="1" parent="HeWmij_1mZDLhINLAWdS-32">
          <mxGeometry x="20" y="90" width="60" height="30" as="geometry" />
        </mxCell>
        <mxCell id="HeWmij_1mZDLhINLAWdS-37" value="Bucket" style="text;html=1;whiteSpace=wrap;strokeColor=none;fillColor=none;align=center;verticalAlign=middle;rounded=0;" vertex="1" parent="HeWmij_1mZDLhINLAWdS-32">
          <mxGeometry x="157.69" y="90" width="60" height="30" as="geometry" />
        </mxCell>
        <mxCell id="HeWmij_1mZDLhINLAWdS-38" value="s3:ObjectCreated:*" style="text;html=1;whiteSpace=wrap;strokeColor=none;fillColor=none;align=center;verticalAlign=middle;rounded=0;" vertex="1" parent="HeWmij_1mZDLhINLAWdS-32">
          <mxGeometry x="336.75" y="94.5" width="55.5" height="20" as="geometry" />
        </mxCell>
        <mxCell id="HeWmij_1mZDLhINLAWdS-39" value="" style="endArrow=classic;html=1;rounded=0;" edge="1" parent="HeWmij_1mZDLhINLAWdS-32" source="HeWmij_1mZDLhINLAWdS-33" target="HeWmij_1mZDLhINLAWdS-34">
          <mxGeometry width="50" height="50" relative="1" as="geometry">
            <mxPoint x="40" y="210" as="sourcePoint" />
            <mxPoint x="90" y="160" as="targetPoint" />
          </mxGeometry>
        </mxCell>
        <mxCell id="HeWmij_1mZDLhINLAWdS-40" value="" style="endArrow=classic;html=1;rounded=0;" edge="1" parent="HeWmij_1mZDLhINLAWdS-32" source="HeWmij_1mZDLhINLAWdS-34" target="HeWmij_1mZDLhINLAWdS-35">
          <mxGeometry width="50" height="50" relative="1" as="geometry">
            <mxPoint x="240" y="80" as="sourcePoint" />
            <mxPoint x="290" y="30" as="targetPoint" />
          </mxGeometry>
        </mxCell>
        <mxCell id="HeWmij_1mZDLhINLAWdS-41" value="" style="points=[[0,0],[0.25,0],[0.5,0],[0.75,0],[1,0],[1,0.25],[1,0.5],[1,0.75],[1,1],[0.75,1],[0.5,1],[0.25,1],[0,1],[0,0.75],[0,0.5],[0,0.25]];outlineConnect=0;gradientColor=none;html=1;whiteSpace=wrap;fontSize=12;fontStyle=0;container=1;pointerEvents=0;collapsible=0;recursiveResize=0;shape=mxgraph.aws4.group;grIcon=mxgraph.aws4.group_aws_cloud_alt;strokeColor=#232F3E;fillColor=none;verticalAlign=top;align=left;spacingLeft=30;fontColor=#232F3E;dashed=0;" vertex="1" parent="1">
          <mxGeometry x="700" y="70" width="654.5" height="600" as="geometry" />
        </mxCell>
        <mxCell id="HeWmij_1mZDLhINLAWdS-42" value="" style="sketch=0;points=[[0,0,0],[0.25,0,0],[0.5,0,0],[0.75,0,0],[1,0,0],[0,1,0],[0.25,1,0],[0.5,1,0],[0.75,1,0],[1,1,0],[0,0.25,0],[0,0.5,0],[0,0.75,0],[1,0.25,0],[1,0.5,0],[1,0.75,0]];outlineConnect=0;fontColor=#232F3E;fillColor=#E7157B;strokeColor=#ffffff;dashed=0;verticalLabelPosition=bottom;verticalAlign=top;align=center;html=1;fontSize=12;fontStyle=0;aspect=fixed;shape=mxgraph.aws4.resourceIcon;resIcon=mxgraph.aws4.sqs;" vertex="1" parent="HeWmij_1mZDLhINLAWdS-41">
          <mxGeometry x="40" y="30" width="70" height="70" as="geometry" />
        </mxCell>
        <mxCell id="HeWmij_1mZDLhINLAWdS-43" value="" style="sketch=0;outlineConnect=0;fontColor=#232F3E;gradientColor=none;fillColor=#ED7100;strokeColor=none;dashed=0;verticalLabelPosition=bottom;verticalAlign=top;align=center;html=1;fontSize=12;fontStyle=0;aspect=fixed;pointerEvents=1;shape=mxgraph.aws4.lambda_function;" vertex="1" parent="HeWmij_1mZDLhINLAWdS-41">
          <mxGeometry x="340" y="26.5" width="77" height="77" as="geometry" />
        </mxCell>
        <mxCell id="HeWmij_1mZDLhINLAWdS-44" value="" style="sketch=0;points=[[0,0,0],[0.25,0,0],[0.5,0,0],[0.75,0,0],[1,0,0],[0,1,0],[0.25,1,0],[0.5,1,0],[0.75,1,0],[1,1,0],[0,0.25,0],[0,0.5,0],[0,0.75,0],[1,0.25,0],[1,0.5,0],[1,0.75,0]];outlineConnect=0;fontColor=#232F3E;fillColor=#E7157B;strokeColor=#ffffff;dashed=0;verticalLabelPosition=bottom;verticalAlign=top;align=center;html=1;fontSize=12;fontStyle=0;aspect=fixed;shape=mxgraph.aws4.resourceIcon;resIcon=mxgraph.aws4.sqs;" vertex="1" parent="HeWmij_1mZDLhINLAWdS-41">
          <mxGeometry x="170" y="97" width="70" height="70" as="geometry" />
        </mxCell>
        <mxCell id="HeWmij_1mZDLhINLAWdS-45" value="" style="endArrow=classic;html=1;rounded=0;exitX=1;exitY=1;exitDx=0;exitDy=0;exitPerimeter=0;entryX=0;entryY=0.5;entryDx=0;entryDy=0;entryPerimeter=0;" edge="1" parent="HeWmij_1mZDLhINLAWdS-41" source="HeWmij_1mZDLhINLAWdS-42" target="HeWmij_1mZDLhINLAWdS-44">
          <mxGeometry width="50" height="50" relative="1" as="geometry">
            <mxPoint x="110" y="160" as="sourcePoint" />
            <mxPoint x="160" y="110" as="targetPoint" />
          </mxGeometry>
        </mxCell>
        <mxCell id="HeWmij_1mZDLhINLAWdS-46" value="" style="endArrow=classic;html=1;rounded=0;exitX=0;exitY=0.25;exitDx=0;exitDy=0;exitPerimeter=0;entryX=1;entryY=0.75;entryDx=0;entryDy=0;entryPerimeter=0;" edge="1" parent="HeWmij_1mZDLhINLAWdS-41" source="HeWmij_1mZDLhINLAWdS-44" target="HeWmij_1mZDLhINLAWdS-42">
          <mxGeometry width="50" height="50" relative="1" as="geometry">
            <mxPoint x="160" y="40" as="sourcePoint" />
            <mxPoint x="220" y="72" as="targetPoint" />
          </mxGeometry>
        </mxCell>
        <mxCell id="HeWmij_1mZDLhINLAWdS-47" value="" style="endArrow=classic;html=1;rounded=0;exitX=1;exitY=0.5;exitDx=0;exitDy=0;exitPerimeter=0;" edge="1" parent="HeWmij_1mZDLhINLAWdS-41" source="HeWmij_1mZDLhINLAWdS-42" target="HeWmij_1mZDLhINLAWdS-43">
          <mxGeometry width="50" height="50" relative="1" as="geometry">
            <mxPoint x="140" y="70" as="sourcePoint" />
            <mxPoint x="190" y="20" as="targetPoint" />
          </mxGeometry>
        </mxCell>
        <mxCell id="HeWmij_1mZDLhINLAWdS-52" value="" style="sketch=0;points=[[0,0,0],[0.25,0,0],[0.5,0,0],[0.75,0,0],[1,0,0],[0,1,0],[0.25,1,0],[0.5,1,0],[0.75,1,0],[1,1,0],[0,0.25,0],[0,0.5,0],[0,0.75,0],[1,0.25,0],[1,0.5,0],[1,0.75,0]];outlineConnect=0;fontColor=#232F3E;fillColor=#E7157B;strokeColor=#ffffff;dashed=0;verticalLabelPosition=bottom;verticalAlign=top;align=center;html=1;fontSize=12;fontStyle=0;aspect=fixed;shape=mxgraph.aws4.resourceIcon;resIcon=mxgraph.aws4.sqs;" vertex="1" parent="HeWmij_1mZDLhINLAWdS-41">
          <mxGeometry x="40" y="233.5" width="70" height="70" as="geometry" />
        </mxCell>
        <mxCell id="HeWmij_1mZDLhINLAWdS-53" value="" style="sketch=0;outlineConnect=0;fontColor=#232F3E;gradientColor=none;fillColor=#ED7100;strokeColor=none;dashed=0;verticalLabelPosition=bottom;verticalAlign=top;align=center;html=1;fontSize=12;fontStyle=0;aspect=fixed;pointerEvents=1;shape=mxgraph.aws4.lambda_function;" vertex="1" parent="HeWmij_1mZDLhINLAWdS-41">
          <mxGeometry x="340" y="230" width="77" height="77" as="geometry" />
        </mxCell>
        <mxCell id="HeWmij_1mZDLhINLAWdS-54" value="" style="sketch=0;points=[[0,0,0],[0.25,0,0],[0.5,0,0],[0.75,0,0],[1,0,0],[0,1,0],[0.25,1,0],[0.5,1,0],[0.75,1,0],[1,1,0],[0,0.25,0],[0,0.5,0],[0,0.75,0],[1,0.25,0],[1,0.5,0],[1,0.75,0]];outlineConnect=0;fontColor=#232F3E;fillColor=#E7157B;strokeColor=#ffffff;dashed=0;verticalLabelPosition=bottom;verticalAlign=top;align=center;html=1;fontSize=12;fontStyle=0;aspect=fixed;shape=mxgraph.aws4.resourceIcon;resIcon=mxgraph.aws4.sqs;" vertex="1" parent="HeWmij_1mZDLhINLAWdS-41">
          <mxGeometry x="170" y="300.5" width="70" height="70" as="geometry" />
        </mxCell>
        <mxCell id="HeWmij_1mZDLhINLAWdS-55" value="" style="endArrow=classic;html=1;rounded=0;exitX=1;exitY=1;exitDx=0;exitDy=0;exitPerimeter=0;entryX=0;entryY=0.5;entryDx=0;entryDy=0;entryPerimeter=0;" edge="1" parent="HeWmij_1mZDLhINLAWdS-41" source="HeWmij_1mZDLhINLAWdS-52" target="HeWmij_1mZDLhINLAWdS-54">
          <mxGeometry width="50" height="50" relative="1" as="geometry">
            <mxPoint x="110" y="363.5" as="sourcePoint" />
            <mxPoint x="160" y="313.5" as="targetPoint" />
          </mxGeometry>
        </mxCell>
        <mxCell id="HeWmij_1mZDLhINLAWdS-56" value="" style="endArrow=classic;html=1;rounded=0;exitX=0;exitY=0.25;exitDx=0;exitDy=0;exitPerimeter=0;entryX=1;entryY=0.75;entryDx=0;entryDy=0;entryPerimeter=0;" edge="1" parent="HeWmij_1mZDLhINLAWdS-41" source="HeWmij_1mZDLhINLAWdS-54" target="HeWmij_1mZDLhINLAWdS-52">
          <mxGeometry width="50" height="50" relative="1" as="geometry">
            <mxPoint x="160" y="243.5" as="sourcePoint" />
            <mxPoint x="220" y="275.5" as="targetPoint" />
          </mxGeometry>
        </mxCell>
        <mxCell id="HeWmij_1mZDLhINLAWdS-57" value="" style="endArrow=classic;html=1;rounded=0;exitX=1;exitY=0.5;exitDx=0;exitDy=0;exitPerimeter=0;" edge="1" parent="HeWmij_1mZDLhINLAWdS-41" source="HeWmij_1mZDLhINLAWdS-52" target="HeWmij_1mZDLhINLAWdS-53">
          <mxGeometry width="50" height="50" relative="1" as="geometry">
            <mxPoint x="140" y="273.5" as="sourcePoint" />
            <mxPoint x="190" y="223.5" as="targetPoint" />
          </mxGeometry>
        </mxCell>
        <mxCell id="HeWmij_1mZDLhINLAWdS-58" value="" style="sketch=0;points=[[0,0,0],[0.25,0,0],[0.5,0,0],[0.75,0,0],[1,0,0],[0,1,0],[0.25,1,0],[0.5,1,0],[0.75,1,0],[1,1,0],[0,0.25,0],[0,0.5,0],[0,0.75,0],[1,0.25,0],[1,0.5,0],[1,0.75,0]];outlineConnect=0;fontColor=#232F3E;fillColor=#E7157B;strokeColor=#ffffff;dashed=0;verticalLabelPosition=bottom;verticalAlign=top;align=center;html=1;fontSize=12;fontStyle=0;aspect=fixed;shape=mxgraph.aws4.resourceIcon;resIcon=mxgraph.aws4.sqs;" vertex="1" parent="HeWmij_1mZDLhINLAWdS-41">
          <mxGeometry x="40" y="423.5" width="70" height="70" as="geometry" />
        </mxCell>
        <mxCell id="HeWmij_1mZDLhINLAWdS-59" value="" style="sketch=0;outlineConnect=0;fontColor=#232F3E;gradientColor=none;fillColor=#ED7100;strokeColor=none;dashed=0;verticalLabelPosition=bottom;verticalAlign=top;align=center;html=1;fontSize=12;fontStyle=0;aspect=fixed;pointerEvents=1;shape=mxgraph.aws4.lambda_function;" vertex="1" parent="HeWmij_1mZDLhINLAWdS-41">
          <mxGeometry x="340" y="420" width="77" height="77" as="geometry" />
        </mxCell>
        <mxCell id="HeWmij_1mZDLhINLAWdS-60" value="" style="sketch=0;points=[[0,0,0],[0.25,0,0],[0.5,0,0],[0.75,0,0],[1,0,0],[0,1,0],[0.25,1,0],[0.5,1,0],[0.75,1,0],[1,1,0],[0,0.25,0],[0,0.5,0],[0,0.75,0],[1,0.25,0],[1,0.5,0],[1,0.75,0]];outlineConnect=0;fontColor=#232F3E;fillColor=#E7157B;strokeColor=#ffffff;dashed=0;verticalLabelPosition=bottom;verticalAlign=top;align=center;html=1;fontSize=12;fontStyle=0;aspect=fixed;shape=mxgraph.aws4.resourceIcon;resIcon=mxgraph.aws4.sqs;" vertex="1" parent="HeWmij_1mZDLhINLAWdS-41">
          <mxGeometry x="170" y="490.5" width="70" height="70" as="geometry" />
        </mxCell>
        <mxCell id="HeWmij_1mZDLhINLAWdS-61" value="" style="endArrow=classic;html=1;rounded=0;exitX=1;exitY=1;exitDx=0;exitDy=0;exitPerimeter=0;entryX=0;entryY=0.5;entryDx=0;entryDy=0;entryPerimeter=0;" edge="1" parent="HeWmij_1mZDLhINLAWdS-41" source="HeWmij_1mZDLhINLAWdS-58" target="HeWmij_1mZDLhINLAWdS-60">
          <mxGeometry width="50" height="50" relative="1" as="geometry">
            <mxPoint x="110" y="553.5" as="sourcePoint" />
            <mxPoint x="160" y="503.5" as="targetPoint" />
          </mxGeometry>
        </mxCell>
        <mxCell id="HeWmij_1mZDLhINLAWdS-62" value="" style="endArrow=classic;html=1;rounded=0;exitX=0;exitY=0.25;exitDx=0;exitDy=0;exitPerimeter=0;entryX=1;entryY=0.75;entryDx=0;entryDy=0;entryPerimeter=0;" edge="1" parent="HeWmij_1mZDLhINLAWdS-41" source="HeWmij_1mZDLhINLAWdS-60" target="HeWmij_1mZDLhINLAWdS-58">
          <mxGeometry width="50" height="50" relative="1" as="geometry">
            <mxPoint x="160" y="433.5" as="sourcePoint" />
            <mxPoint x="220" y="465.5" as="targetPoint" />
          </mxGeometry>
        </mxCell>
        <mxCell id="HeWmij_1mZDLhINLAWdS-63" value="" style="endArrow=classic;html=1;rounded=0;exitX=1;exitY=0.5;exitDx=0;exitDy=0;exitPerimeter=0;" edge="1" parent="HeWmij_1mZDLhINLAWdS-41" source="HeWmij_1mZDLhINLAWdS-58" target="HeWmij_1mZDLhINLAWdS-59">
          <mxGeometry width="50" height="50" relative="1" as="geometry">
            <mxPoint x="140" y="463.5" as="sourcePoint" />
            <mxPoint x="190" y="413.5" as="targetPoint" />
          </mxGeometry>
        </mxCell>
        <mxCell id="HeWmij_1mZDLhINLAWdS-75" value="queue specific to one consumer" style="text;html=1;whiteSpace=wrap;strokeColor=none;fillColor=none;align=center;verticalAlign=middle;rounded=0;" vertex="1" parent="HeWmij_1mZDLhINLAWdS-41">
          <mxGeometry x="-20" y="110" width="170" height="20" as="geometry" />
        </mxCell>
        <mxCell id="HeWmij_1mZDLhINLAWdS-76" value="&lt;font color=&quot;#232f3e&quot;&gt;Security account&lt;/font&gt;" style="text;whiteSpace=wrap;html=1;" vertex="1" parent="HeWmij_1mZDLhINLAWdS-41">
          <mxGeometry x="30" width="130" height="40" as="geometry" />
        </mxCell>
        <mxCell id="HeWmij_1mZDLhINLAWdS-77" value="queue specific to one consumer" style="text;html=1;whiteSpace=wrap;strokeColor=none;fillColor=none;align=center;verticalAlign=middle;rounded=0;" vertex="1" parent="HeWmij_1mZDLhINLAWdS-41">
          <mxGeometry x="-20" y="320" width="170" height="20" as="geometry" />
        </mxCell>
        <mxCell id="HeWmij_1mZDLhINLAWdS-78" value="queue specific to one consumer" style="text;html=1;whiteSpace=wrap;strokeColor=none;fillColor=none;align=center;verticalAlign=middle;rounded=0;" vertex="1" parent="HeWmij_1mZDLhINLAWdS-41">
          <mxGeometry x="-20" y="504" width="170" height="20" as="geometry" />
        </mxCell>
        <mxCell id="HeWmij_1mZDLhINLAWdS-80" value="DLQ to store fail message" style="text;html=1;whiteSpace=wrap;strokeColor=none;fillColor=none;align=center;verticalAlign=middle;rounded=0;" vertex="1" parent="HeWmij_1mZDLhINLAWdS-41">
          <mxGeometry x="130" y="180" width="170" height="20" as="geometry" />
        </mxCell>
        <mxCell id="HeWmij_1mZDLhINLAWdS-81" value="DLQ to store fail message" style="text;html=1;whiteSpace=wrap;strokeColor=none;fillColor=none;align=center;verticalAlign=middle;rounded=0;" vertex="1" parent="HeWmij_1mZDLhINLAWdS-41">
          <mxGeometry x="130" y="380" width="170" height="20" as="geometry" />
        </mxCell>
        <mxCell id="HeWmij_1mZDLhINLAWdS-82" value="DLQ to store fail message" style="text;html=1;whiteSpace=wrap;strokeColor=none;fillColor=none;align=center;verticalAlign=middle;rounded=0;" vertex="1" parent="HeWmij_1mZDLhINLAWdS-41">
          <mxGeometry x="130" y="570" width="170" height="20" as="geometry" />
        </mxCell>
        <mxCell id="HeWmij_1mZDLhINLAWdS-83" value="" style="sketch=0;outlineConnect=0;fontColor=#232F3E;gradientColor=none;fillColor=#232F3D;strokeColor=none;dashed=0;verticalLabelPosition=bottom;verticalAlign=top;align=center;html=1;fontSize=12;fontStyle=0;aspect=fixed;pointerEvents=1;shape=mxgraph.aws4.source_code;" vertex="1" parent="HeWmij_1mZDLhINLAWdS-41">
          <mxGeometry x="541" y="230" width="57" height="78" as="geometry" />
        </mxCell>
        <mxCell id="HeWmij_1mZDLhINLAWdS-84" value="Common source code" style="text;html=1;whiteSpace=wrap;strokeColor=none;fillColor=none;align=center;verticalAlign=middle;rounded=0;" vertex="1" parent="HeWmij_1mZDLhINLAWdS-41">
          <mxGeometry x="484.5" y="340" width="170" height="20" as="geometry" />
        </mxCell>
        <mxCell id="HeWmij_1mZDLhINLAWdS-86" value="" style="endArrow=classic;html=1;rounded=0;" edge="1" parent="HeWmij_1mZDLhINLAWdS-41" source="HeWmij_1mZDLhINLAWdS-83" target="HeWmij_1mZDLhINLAWdS-53">
          <mxGeometry width="50" height="50" relative="1" as="geometry">
            <mxPoint x="460" y="290" as="sourcePoint" />
            <mxPoint x="510" y="240" as="targetPoint" />
          </mxGeometry>
        </mxCell>
        <mxCell id="HeWmij_1mZDLhINLAWdS-87" value="" style="endArrow=classic;html=1;rounded=0;" edge="1" parent="HeWmij_1mZDLhINLAWdS-41" source="HeWmij_1mZDLhINLAWdS-83" target="HeWmij_1mZDLhINLAWdS-43">
          <mxGeometry width="50" height="50" relative="1" as="geometry">
            <mxPoint x="550" y="220" as="sourcePoint" />
            <mxPoint x="600" y="170" as="targetPoint" />
            <Array as="points">
              <mxPoint x="570" y="65" />
            </Array>
          </mxGeometry>
        </mxCell>
        <mxCell id="HeWmij_1mZDLhINLAWdS-88" value="" style="edgeStyle=orthogonalEdgeStyle;html=1;endArrow=none;elbow=vertical;startArrow=block;startFill=1;strokeColor=#545B64;rounded=0;" edge="1" parent="HeWmij_1mZDLhINLAWdS-41" source="HeWmij_1mZDLhINLAWdS-59" target="HeWmij_1mZDLhINLAWdS-83">
          <mxGeometry width="100" relative="1" as="geometry">
            <mxPoint x="550" y="420" as="sourcePoint" />
            <mxPoint x="650" y="420" as="targetPoint" />
          </mxGeometry>
        </mxCell>
        <mxCell id="HeWmij_1mZDLhINLAWdS-65" value="" style="endArrow=classic;html=1;rounded=0;entryX=0;entryY=0.5;entryDx=0;entryDy=0;entryPerimeter=0;" edge="1" parent="1" source="HeWmij_1mZDLhINLAWdS-23" target="HeWmij_1mZDLhINLAWdS-52">
          <mxGeometry width="50" height="50" relative="1" as="geometry">
            <mxPoint x="590" y="380" as="sourcePoint" />
            <mxPoint x="640" y="330" as="targetPoint" />
          </mxGeometry>
        </mxCell>
        <mxCell id="HeWmij_1mZDLhINLAWdS-66" value="" style="endArrow=classic;html=1;rounded=0;exitX=1;exitY=0.5;exitDx=0;exitDy=0;entryX=0;entryY=0.5;entryDx=0;entryDy=0;entryPerimeter=0;" edge="1" parent="1" source="HeWmij_1mZDLhINLAWdS-2" target="HeWmij_1mZDLhINLAWdS-42">
          <mxGeometry width="50" height="50" relative="1" as="geometry">
            <mxPoint x="580" y="240" as="sourcePoint" />
            <mxPoint x="630" y="190" as="targetPoint" />
            <Array as="points">
              <mxPoint x="550" y="135" />
            </Array>
          </mxGeometry>
        </mxCell>
        <mxCell id="HeWmij_1mZDLhINLAWdS-73" value="" style="endArrow=classic;html=1;rounded=0;exitX=1;exitY=0.5;exitDx=0;exitDy=0;entryX=0;entryY=0.5;entryDx=0;entryDy=0;entryPerimeter=0;" edge="1" parent="1" source="HeWmij_1mZDLhINLAWdS-32" target="HeWmij_1mZDLhINLAWdS-58">
          <mxGeometry width="50" height="50" relative="1" as="geometry">
            <mxPoint x="600" y="530" as="sourcePoint" />
            <mxPoint x="650" y="480" as="targetPoint" />
            <Array as="points">
              <mxPoint x="550" y="529" />
            </Array>
          </mxGeometry>
        </mxCell>
      </root>
    </mxGraphModel>
  </diagram>
</mxfile>
